<?xml version="1.0" standalone="no"?>
<!DOCTYPE svg PUBLIC "-//W3C//DTD SVG 20010904//EN"
 "http://www.w3.org/TR/2001/REC-SVG-20010904/DTD/svg10.dtd">
<svg version="1.0" xmlns="http://www.w3.org/2000/svg"
 width="1210.000000pt" height="560.000000pt" viewBox="0 0 1210.000000 560.000000"
 preserveAspectRatio="xMidYMid meet">
<g transform="translate(0.000000,560.000000) scale(0.100000,-0.100000)"
fill="#ffffff" stroke="none">
<path d="M1749 5213 c-268 -278 -439 -650 -439 -952 0 -205 90 -433 259 -658
83 -111 240 -274 354 -370 79 -66 90 -72 110 -62 46 25 149 113 224 193 207
221 281 467 223 737 -69 324 -205 612 -434 914 -59 78 -222 255 -235 255 -4 0
-32 -26 -62 -57z m137 -130 c364 -418 592 -988 520 -1298 -36 -153 -155 -333
-302 -459 -42 -36 -80 -66 -84 -66 -13 0 -207 178 -266 246 -163 183 -267 351
-324 524 -89 264 -26 562 187 885 67 101 180 245 193 245 5 0 39 -35 76 -77z"/>
<path d="M10217 5208 c-426 -452 -689 -1089 -598 -1448 40 -158 112 -280 245
-418 45 -46 111 -106 149 -134 l67 -50 58 43 c93 70 312 296 400 414 144 193
236 411 249 594 18 267 -98 579 -325 875 -61 79 -162 186 -175 186 -6 0 -38
-28 -70 -62z m144 -128 c233 -278 365 -608 346 -864 -15 -194 -104 -392 -277
-609 -70 -88 -226 -248 -303 -311 l-47 -38 -55 42 c-157 121 -285 307 -329
477 -80 308 153 894 522 1311 36 40 68 72 72 70 5 -2 36 -37 71 -78z"/>
<path d="M5375 5183 c-697 -23 -1167 -81 -1475 -183 -329 -108 -517 -268 -661
-563 -97 -201 -137 -351 -146 -552 -10 -224 25 -395 121 -590 119 -242 296
-421 556 -565 212 -118 430 -200 930 -354 613 -187 806 -277 968 -451 128
-137 182 -294 182 -535 0 -474 -283 -756 -1000 -996 l-85 -28 40 -7 c22 -4
141 -3 265 2 124 5 603 13 1065 19 1035 12 2132 28 2403 36 l202 6 0 551 c0
303 -2 548 -4 546 -2 -2 -34 -58 -71 -124 -256 -454 -553 -746 -830 -819 -42
-11 -147 -19 -355 -26 -302 -11 -1891 -28 -1900 -21 -3 2 1 6 9 9 8 2 59 35
115 72 235 157 439 396 566 662 301 633 158 1294 -354 1633 -186 122 -370 195
-886 350 -607 181 -835 271 -1046 411 -106 70 -229 200 -272 287 -168 341 -33
684 348 881 227 118 547 184 998 206 207 10 1875 -4 2392 -20 361 -11 420 -20
555 -84 228 -108 388 -290 629 -713 54 -95 100 -173 102 -173 2 0 4 245 4 544
l0 544 -82 6 c-188 13 -2212 46 -2688 44 -283 -1 -551 -3 -595 -5z"/>
<path d="M7860 3901 c0 -7 -29 -72 -64 -144 -186 -382 -427 -608 -767 -721
-145 -48 -230 -64 -411 -78 -153 -11 -158 -13 -158 -34 0 -21 5 -22 113 -28
496 -29 785 -136 981 -364 85 -99 164 -240 266 -479 24 -56 46 -101 47 -99 2
2 -1 169 -7 372 -12 437 -12 1301 0 1464 4 63 6 117 4 119 -2 2 -4 -1 -4 -8z"/>
<path d="M351 3743 c-24 -52 -71 -255 -86 -369 -46 -350 17 -652 181 -865 137
-178 374 -342 669 -463 107 -43 332 -116 360 -116 29 0 118 190 157 335 29
107 32 328 5 425 -28 102 -82 200 -171 312 -200 248 -475 470 -787 632 -109
57 -289 136 -309 136 -4 0 -12 -12 -19 -27z m196 -133 c480 -224 899 -611
1009 -930 15 -44 19 -82 18 -195 0 -121 -4 -152 -27 -226 -30 -100 -92 -239
-105 -239 -25 0 -269 88 -370 133 -345 153 -566 348 -666 585 -56 132 -70 220
-70 422 -1 188 15 310 59 457 18 60 5 61 152 -7z"/>
<path d="M11623 3730 c-215 -89 -460 -236 -648 -387 -182 -147 -395 -384 -460
-513 -92 -181 -99 -438 -18 -663 32 -90 102 -227 119 -234 19 -7 204 49 343
103 312 123 575 305 706 489 178 250 228 598 143 995 -28 132 -67 250 -81 249
-7 0 -53 -18 -104 -39z m88 -142 c41 -160 53 -250 53 -423 1 -221 -24 -337
-106 -496 -130 -254 -442 -469 -889 -614 -131 -42 -119 -48 -170 74 -52 123
-71 206 -76 331 -8 199 35 319 181 502 216 268 531 505 885 664 52 24 97 42
99 40 2 -3 12 -37 23 -78z"/>
<path d="M194 1583 l-31 -4 9 -62 c12 -99 48 -244 85 -351 114 -330 318 -584
568 -709 264 -132 695 -177 1108 -116 l77 11 0 123 c0 323 -112 581 -321 740
-140 106 -471 243 -720 299 -266 59 -609 90 -775 69z m351 -84 c227 -19 470
-69 670 -139 50 -17 158 -64 242 -106 127 -62 163 -86 227 -145 156 -146 232
-323 243 -565 l6 -121 -34 -6 c-90 -17 -326 -28 -444 -22 -315 16 -559 89
-732 219 -207 156 -378 456 -451 793 -11 51 -17 94 -14 97 9 9 156 7 287 -5z"/>
<path d="M11551 1579 c-336 -26 -670 -114 -948 -251 -266 -132 -401 -288 -479
-553 -22 -76 -27 -116 -31 -256 l-5 -166 78 -12 c417 -62 844 -17 1112 118
308 155 546 515 631 955 30 154 29 162 -16 170 -48 7 -208 5 -342 -5z m289
-96 c0 -43 -46 -214 -86 -321 -114 -304 -288 -519 -512 -631 -214 -108 -544
-158 -867 -132 -182 15 -203 19 -210 42 -10 30 13 227 36 309 42 155 126 290
237 383 33 28 118 79 203 121 323 161 695 247 1097 254 l102 2 0 -27z"/>
</g>
</svg>
